<svg width="246" height="656" viewBox="0 0 246 656" fill="none" xmlns="http://www.w3.org/2000/svg">
<path d="M0 384.5L157.5 50V320H246L88.5 656L157.5 384.5L88.5 576.5V384.5H0Z" fill="#4EB857"/>
<path d="M0 384.5L157.5 50L50 384.5H0Z" fill="#2F9750"/>
<path d="M152 5C152 2.23858 154.239 0 157 0C159.761 0 162 2.23858 162 5V20C162 22.7614 159.761 25 157 25C154.239 25 152 22.7614 152 20V5Z" fill="#F4C327"/>
<path d="M187 55C184.239 55 182 52.7614 182 50C182 47.2386 184.239 45 187 45H202C204.761 45 207 47.2386 207 50C207 52.7614 204.761 55 202 55H187Z" fill="#F4C327"/>
</svg>
