<svg width="383" height="134" viewBox="0 0 383 134" fill="none" xmlns="http://www.w3.org/2000/svg">
<path d="M0 72.0204L31.8233 2.88391C34.0525 -1.95907 41.1555 -0.334076 41.1555 5.0189V49.768C41.1555 52.5359 43.349 54.7798 46.0549 54.7798H64.2809L28.7817 132.248C27.4348 135.187 23.1255 134.205 23.1255 130.959V77.0322C23.1255 74.2642 20.9319 72.0204 18.226 72.0204H0Z" fill="white"/>
<path d="M131.841 29.0316H138.318V69.7682C138.318 76.9413 137.705 82.1881 136.481 85.5084C134.796 90.207 131.872 93.8249 127.707 96.3621C123.543 98.8993 118.536 100.168 112.688 100.168C108.401 100.168 104.542 99.5414 101.113 98.2885C97.7136 97.0669 94.9424 95.4067 92.7988 93.308C90.6553 91.2406 88.6802 88.2022 86.8736 84.1928H93.8553C95.7538 87.5758 98.2036 90.0817 101.204 91.7105C104.205 93.3393 107.926 94.1538 112.366 94.1538C116.745 94.1538 120.435 93.308 123.436 91.6165C126.467 89.9564 128.626 87.8577 129.912 85.3204C131.198 82.7832 131.841 78.6955 131.841 73.0572V70.426C129.422 73.5584 126.467 75.9703 122.976 77.6618C119.486 79.3219 115.78 80.152 111.861 80.152C107.268 80.152 102.95 78.993 98.9079 76.6751C94.8658 74.3258 91.7424 71.1778 89.5376 67.231C87.3329 63.2842 86.2305 58.9458 86.2305 54.2159C86.2305 49.486 87.3788 45.0851 89.6754 41.013C91.9721 36.9095 95.1414 33.6675 99.1835 31.2869C103.256 28.9063 107.543 27.716 112.045 27.716C115.78 27.716 119.256 28.5148 122.471 30.1123C125.717 31.6785 128.84 34.2783 131.841 37.9119V29.0316ZM112.871 34.0591C109.227 34.0591 105.844 34.9675 102.72 36.7843C99.5968 38.5697 97.1471 41.0599 95.3711 44.255C93.595 47.4187 92.707 50.8486 92.707 54.5448C92.707 60.1518 94.5443 64.7877 98.2189 68.4526C101.893 72.1175 106.655 73.9499 112.504 73.9499C118.414 73.9499 123.16 72.1331 126.743 68.4996C130.356 64.866 132.163 60.0891 132.163 54.1689C132.163 50.3161 131.336 46.8862 129.683 43.8791C128.029 40.8407 125.686 38.4444 122.655 36.6903C119.623 34.9361 116.362 34.0591 112.871 34.0591Z" fill="#1C592F"/>
<path d="M149.663 29.0316H156.232V36.5023C158.191 33.5579 160.258 31.3652 162.432 29.9243C164.607 28.4521 166.873 27.716 169.23 27.716C171.006 27.716 172.905 28.2955 174.926 29.4545L171.573 34.9988C170.226 34.4036 169.093 34.1061 168.174 34.1061C166.03 34.1061 163.964 35.0145 161.973 36.8312C159.983 38.6167 158.467 41.4045 157.426 45.1947C156.63 48.1078 156.232 53.9967 156.232 62.8613V80.152H149.663V29.0316Z" fill="#1C592F"/>
<path d="M222.466 63.1902L227.886 66.1033C226.11 69.6742 224.058 72.556 221.731 74.7487C219.404 76.9413 216.786 78.6172 213.877 79.7761C210.968 80.9038 207.676 81.4676 204.001 81.4676C195.856 81.4676 189.487 78.7425 184.893 73.2921C180.3 67.8105 178.004 61.624 178.004 54.7328C178.004 48.2488 179.948 42.4695 183.837 37.3951C188.767 30.9424 195.366 27.716 203.634 27.716C212.147 27.716 218.945 31.0207 224.028 37.63C227.641 42.2972 229.478 48.1235 229.54 55.1087H184.618C184.74 61.0602 186.593 65.9467 190.176 69.7682C193.758 73.5584 198.183 75.4535 203.45 75.4535C205.992 75.4535 208.457 74.9993 210.845 74.0909C213.264 73.1825 215.316 71.9765 217 70.473C218.684 68.9694 220.506 66.5418 222.466 63.1902ZM222.466 49.4234C221.609 45.9151 220.353 43.1117 218.7 41.013C217.077 38.9143 214.918 37.2228 212.223 35.9385C209.528 34.6542 206.696 34.0121 203.726 34.0121C198.826 34.0121 194.616 35.6253 191.094 38.8516C188.522 41.2009 186.578 44.7248 185.261 49.4234H222.466Z" fill="#1C592F"/>
<path d="M283.648 63.1902L289.068 66.1033C287.292 69.6742 285.24 72.556 282.913 74.7487C280.586 76.9413 277.968 78.6172 275.059 79.7761C272.15 80.9038 268.858 81.4676 265.183 81.4676C257.038 81.4676 250.669 78.7425 246.075 73.2921C241.482 67.8105 239.186 61.624 239.186 54.7328C239.186 48.2488 241.13 42.4695 245.019 37.3951C249.949 30.9424 256.548 27.716 264.816 27.716C273.329 27.716 280.127 31.0207 285.21 37.63C288.823 42.2972 290.66 48.1235 290.722 55.1087H245.8C245.922 61.0602 247.775 65.9467 251.358 69.7682C254.94 73.5584 259.365 75.4535 264.632 75.4535C267.174 75.4535 269.639 74.9993 272.027 74.0909C274.446 73.1825 276.498 71.9765 278.182 70.473C279.866 68.9694 281.688 66.5418 283.648 63.1902ZM283.648 49.4234C282.791 45.9151 281.535 43.1117 279.882 41.013C278.259 38.9143 276.1 37.2228 273.405 35.9385C270.71 34.6542 267.878 34.0121 264.908 34.0121C260.008 34.0121 255.798 35.6253 252.276 38.8516C249.704 41.2009 247.76 44.7248 246.443 49.4234H283.648Z" fill="#1C592F"/>
<path d="M302.756 29.0316H309.187V38.1938C311.759 34.6856 314.607 32.07 317.73 30.3472C320.853 28.5931 324.252 27.716 327.927 27.716C331.663 27.716 334.97 28.6871 337.848 30.6291C340.757 32.5712 342.901 35.1867 344.279 38.4757C345.657 41.7647 346.346 46.8862 346.346 53.8401V80.152H339.961V55.7665C339.961 49.8776 339.716 45.9465 339.226 43.9731C338.461 40.5901 337.022 38.0529 334.909 36.3614C332.796 34.6386 330.04 33.7772 326.641 33.7772C322.752 33.7772 319.261 35.0928 316.168 37.724C313.106 40.3552 311.085 43.6128 310.105 47.497C309.493 50.0342 309.187 54.6701 309.187 61.4047V80.152H302.756V29.0316Z" fill="#1C592F"/>
<path d="M357.737 29.0316H364.306V36.5023C366.265 33.5579 368.332 31.3652 370.506 29.9243C372.681 28.4521 374.947 27.716 377.304 27.716C379.08 27.716 380.979 28.2955 383 29.4545L379.647 34.9988C378.3 34.4036 377.167 34.1061 376.248 34.1061C374.104 34.1061 372.037 35.0145 370.047 36.8312C368.057 38.6167 366.541 41.4045 365.5 45.1947C364.704 48.1078 364.306 53.9967 364.306 62.8613V80.152H357.737V29.0316Z" fill="#1C592F"/>
</svg>
