<svg width="303" height="762" viewBox="0 0 303 762" fill="none" xmlns="http://www.w3.org/2000/svg">
<path d="M46.5469 690.312H53.1562V730.953C53.1562 738.109 52.5312 743.344 51.2812 746.656C49.5625 751.344 46.5781 754.953 42.3281 757.484C38.0781 760.016 32.9688 761.281 27 761.281C22.625 761.281 18.6875 760.656 15.1875 759.406C11.7188 758.188 8.89062 756.531 6.70312 754.438C4.51562 752.375 2.5 749.344 0.65625 745.344H7.78125C9.71875 748.719 12.2188 751.219 15.2812 752.844C18.3438 754.469 22.1406 755.281 26.6719 755.281C31.1406 755.281 34.9062 754.438 37.9688 752.75C41.0625 751.094 43.2656 749 44.5781 746.469C45.8906 743.938 46.5469 739.859 46.5469 734.234V731.609C44.0781 734.734 41.0625 737.141 37.5 738.828C33.9375 740.484 30.1562 741.312 26.1562 741.312C21.4688 741.312 17.0625 740.156 12.9375 737.844C8.8125 735.5 5.625 732.359 3.375 728.422C1.125 724.484 0 720.156 0 715.438C0 710.719 1.17188 706.328 3.51562 702.266C5.85938 698.172 9.09375 694.938 13.2188 692.562C17.375 690.188 21.75 689 26.3438 689C30.1562 689 33.7031 689.797 36.9844 691.391C40.2969 692.953 43.4844 695.547 46.5469 699.172V690.312ZM27.1875 695.328C23.4688 695.328 20.0156 696.234 16.8281 698.047C13.6406 699.828 11.1406 702.312 9.32812 705.5C7.51562 708.656 6.60938 712.078 6.60938 715.766C6.60938 721.359 8.48438 725.984 12.2344 729.641C15.9844 733.297 20.8438 735.125 26.8125 735.125C32.8438 735.125 37.6875 733.312 41.3438 729.688C45.0312 726.062 46.875 721.297 46.875 715.391C46.875 711.547 46.0312 708.125 44.3438 705.125C42.6562 702.094 40.2656 699.703 37.1719 697.953C34.0781 696.203 30.75 695.328 27.1875 695.328Z" fill="#1C592F"/>
<path d="M64.7344 690.312H71.4375V697.766C73.4375 694.828 75.5469 692.641 77.7656 691.203C79.9844 689.734 82.2969 689 84.7031 689C86.5156 689 88.4531 689.578 90.5156 690.734L87.0938 696.266C85.7188 695.672 84.5625 695.375 83.625 695.375C81.4375 695.375 79.3281 696.281 77.2969 698.094C75.2656 699.875 73.7188 702.656 72.6562 706.438C71.8438 709.344 71.4375 715.219 71.4375 724.062V741.312H64.7344V690.312Z" fill="#1C592F"/>
<path d="M139.031 724.391L144.562 727.297C142.75 730.859 140.656 733.734 138.281 735.922C135.906 738.109 133.234 739.781 130.266 740.938C127.297 742.062 123.938 742.625 120.188 742.625C111.875 742.625 105.375 739.906 100.688 734.469C96 729 93.6562 722.828 93.6562 715.953C93.6562 709.484 95.6406 703.719 99.6094 698.656C104.641 692.219 111.375 689 119.812 689C128.5 689 135.438 692.297 140.625 698.891C144.312 703.547 146.188 709.359 146.25 716.328H100.406C100.531 722.266 102.422 727.141 106.078 730.953C109.734 734.734 114.25 736.625 119.625 736.625C122.219 736.625 124.734 736.172 127.172 735.266C129.641 734.359 131.734 733.156 133.453 731.656C135.172 730.156 137.031 727.734 139.031 724.391ZM139.031 710.656C138.156 707.156 136.875 704.359 135.188 702.266C133.531 700.172 131.328 698.484 128.578 697.203C125.828 695.922 122.938 695.281 119.906 695.281C114.906 695.281 110.609 696.891 107.016 700.109C104.391 702.453 102.406 705.969 101.062 710.656H139.031Z" fill="#1C592F"/>
<path d="M201.469 724.391L207 727.297C205.188 730.859 203.094 733.734 200.719 735.922C198.344 738.109 195.672 739.781 192.703 740.938C189.734 742.062 186.375 742.625 182.625 742.625C174.312 742.625 167.812 739.906 163.125 734.469C158.438 729 156.094 722.828 156.094 715.953C156.094 709.484 158.078 703.719 162.047 698.656C167.078 692.219 173.812 689 182.25 689C190.938 689 197.875 692.297 203.062 698.891C206.75 703.547 208.625 709.359 208.688 716.328H162.844C162.969 722.266 164.859 727.141 168.516 730.953C172.172 734.734 176.688 736.625 182.062 736.625C184.656 736.625 187.172 736.172 189.609 735.266C192.078 734.359 194.172 733.156 195.891 731.656C197.609 730.156 199.469 727.734 201.469 724.391ZM201.469 710.656C200.594 707.156 199.312 704.359 197.625 702.266C195.969 700.172 193.766 698.484 191.016 697.203C188.266 695.922 185.375 695.281 182.344 695.281C177.344 695.281 173.047 696.891 169.453 700.109C166.828 702.453 164.844 705.969 163.5 710.656H201.469Z" fill="#1C592F"/>
<path d="M220.969 690.312H227.531V699.453C230.156 695.953 233.062 693.344 236.25 691.625C239.438 689.875 242.906 689 246.656 689C250.469 689 253.844 689.969 256.781 691.906C259.75 693.844 261.938 696.453 263.344 699.734C264.75 703.016 265.453 708.125 265.453 715.062V741.312H258.938V716.984C258.938 711.109 258.688 707.188 258.188 705.219C257.406 701.844 255.938 699.312 253.781 697.625C251.625 695.906 248.812 695.047 245.344 695.047C241.375 695.047 237.812 696.359 234.656 698.984C231.531 701.609 229.469 704.859 228.469 708.734C227.844 711.266 227.531 715.891 227.531 722.609V741.312H220.969V690.312Z" fill="#1C592F"/>
<path d="M277.078 690.312H283.781V697.766C285.781 694.828 287.891 692.641 290.109 691.203C292.328 689.734 294.641 689 297.047 689C298.859 689 300.797 689.578 302.859 690.734L299.438 696.266C298.062 695.672 296.906 695.375 295.969 695.375C293.781 695.375 291.672 696.281 289.641 698.094C287.609 699.875 286.062 702.656 285 706.438C284.188 709.344 283.781 715.219 283.781 724.062V741.312H277.078V690.312Z" fill="#1C592F"/>
<path d="M28 384.5L185.5 50V320H274L116.5 656L185.5 384.5L116.5 576.5V384.5H28Z" fill="#4EB857"/>
<path d="M28 384.5L185.5 50L78 384.5H28Z" fill="#2F9750"/>
<path d="M180 5C180 2.23858 182.239 0 185 0C187.761 0 190 2.23858 190 5V20C190 22.7614 187.761 25 185 25C182.239 25 180 22.7614 180 20V5Z" fill="#F4C327"/>
<path d="M215 55C212.239 55 210 52.7614 210 50C210 47.2386 212.239 45 215 45H230C232.761 45 235 47.2386 235 50C235 52.7614 232.761 55 230 55H215Z" fill="#F4C327"/>
</svg>
