<svg width="391" height="134" viewBox="0 0 391 134" fill="none" xmlns="http://www.w3.org/2000/svg">
<path d="M0 71.8507L32.4764 2.87711C34.7513 -1.95446 42 -0.333289 42 5.00707V49.6507C42 52.4121 44.2386 54.6507 47 54.6507H65.6L29.3723 131.937C27.9978 134.869 23.6 133.889 23.6 130.651V76.8507C23.6 74.0893 21.3614 71.8507 18.6 71.8507H0Z" fill="#4EB857"/>
<path d="M134.547 28.9632H141.156V69.6039C141.156 76.7601 140.531 81.9945 139.281 85.307C137.562 89.9945 134.578 93.6039 130.328 96.1351C126.078 98.6664 120.969 99.932 115 99.932C110.625 99.932 106.688 99.307 103.188 98.057C99.7188 96.8382 96.8906 95.182 94.7031 93.0882C92.5156 91.0257 90.5 87.9945 88.6562 83.9945H95.7812C97.7188 87.3695 100.219 89.8695 103.281 91.4945C106.344 93.1195 110.141 93.932 114.672 93.932C119.141 93.932 122.906 93.0882 125.969 91.4007C129.062 89.7445 131.266 87.6507 132.578 85.1195C133.891 82.5882 134.547 78.5101 134.547 72.8851V70.2601C132.078 73.3851 129.062 75.7914 125.5 77.4789C121.938 79.1351 118.156 79.9632 114.156 79.9632C109.469 79.9632 105.062 78.807 100.938 76.4945C96.8125 74.1507 93.625 71.0101 91.375 67.0726C89.125 63.1351 88 58.807 88 54.0882C88 49.3695 89.1719 44.9789 91.5156 40.9164C93.8594 36.8226 97.0938 33.5882 101.219 31.2132C105.375 28.8382 109.75 27.6507 114.344 27.6507C118.156 27.6507 121.703 28.4476 124.984 30.0414C128.297 31.6039 131.484 34.1976 134.547 37.8226V28.9632ZM115.188 33.9789C111.469 33.9789 108.016 34.8851 104.828 36.6976C101.641 38.4789 99.1406 40.9632 97.3281 44.1507C95.5156 47.307 94.6094 50.7289 94.6094 54.4164C94.6094 60.0101 96.4844 64.6351 100.234 68.2914C103.984 71.9476 108.844 73.7757 114.812 73.7757C120.844 73.7757 125.688 71.9632 129.344 68.3382C133.031 64.7132 134.875 59.9476 134.875 54.0414C134.875 50.1976 134.031 46.7757 132.344 43.7757C130.656 40.7445 128.266 38.3539 125.172 36.6039C122.078 34.8539 118.75 33.9789 115.188 33.9789Z" fill="#1C592F"/>
<path d="M152.734 28.9632H159.438V36.4164C161.438 33.4789 163.547 31.2914 165.766 29.8539C167.984 28.3851 170.297 27.6507 172.703 27.6507C174.516 27.6507 176.453 28.2289 178.516 29.3851L175.094 34.9164C173.719 34.3226 172.562 34.0257 171.625 34.0257C169.438 34.0257 167.328 34.932 165.297 36.7445C163.266 38.5257 161.719 41.307 160.656 45.0882C159.844 47.9945 159.438 53.8695 159.438 62.7132V79.9632H152.734V28.9632Z" fill="#1C592F"/>
<path d="M227.031 63.0414L232.562 65.9476C230.75 69.5101 228.656 72.3851 226.281 74.5726C223.906 76.7601 221.234 78.432 218.266 79.5882C215.297 80.7132 211.938 81.2757 208.188 81.2757C199.875 81.2757 193.375 78.557 188.688 73.1195C184 67.6507 181.656 61.4789 181.656 54.6039C181.656 48.1351 183.641 42.3695 187.609 37.307C192.641 30.8695 199.375 27.6507 207.812 27.6507C216.5 27.6507 223.438 30.9476 228.625 37.5414C232.312 42.1976 234.188 48.0101 234.25 54.9789H188.406C188.531 60.9164 190.422 65.7914 194.078 69.6039C197.734 73.3851 202.25 75.2757 207.625 75.2757C210.219 75.2757 212.734 74.8226 215.172 73.9164C217.641 73.0101 219.734 71.807 221.453 70.307C223.172 68.807 225.031 66.3851 227.031 63.0414ZM227.031 49.307C226.156 45.807 224.875 43.0101 223.188 40.9164C221.531 38.8226 219.328 37.1351 216.578 35.8539C213.828 34.5726 210.938 33.932 207.906 33.932C202.906 33.932 198.609 35.5414 195.016 38.7601C192.391 41.1039 190.406 44.6195 189.062 49.307H227.031Z" fill="#1C592F"/>
<path d="M289.469 63.0414L295 65.9476C293.188 69.5101 291.094 72.3851 288.719 74.5726C286.344 76.7601 283.672 78.432 280.703 79.5882C277.734 80.7132 274.375 81.2757 270.625 81.2757C262.312 81.2757 255.812 78.557 251.125 73.1195C246.438 67.6507 244.094 61.4789 244.094 54.6039C244.094 48.1351 246.078 42.3695 250.047 37.307C255.078 30.8695 261.812 27.6507 270.25 27.6507C278.938 27.6507 285.875 30.9476 291.062 37.5414C294.75 42.1976 296.625 48.0101 296.688 54.9789H250.844C250.969 60.9164 252.859 65.7914 256.516 69.6039C260.172 73.3851 264.688 75.2757 270.062 75.2757C272.656 75.2757 275.172 74.8226 277.609 73.9164C280.078 73.0101 282.172 71.807 283.891 70.307C285.609 68.807 287.469 66.3851 289.469 63.0414ZM289.469 49.307C288.594 45.807 287.312 43.0101 285.625 40.9164C283.969 38.8226 281.766 37.1351 279.016 35.8539C276.266 34.5726 273.375 33.932 270.344 33.932C265.344 33.932 261.047 35.5414 257.453 38.7601C254.828 41.1039 252.844 44.6195 251.5 49.307H289.469Z" fill="#1C592F"/>
<path d="M308.969 28.9632H315.531V38.1039C318.156 34.6039 321.062 31.9945 324.25 30.2757C327.438 28.5257 330.906 27.6507 334.656 27.6507C338.469 27.6507 341.844 28.6195 344.781 30.557C347.75 32.4945 349.938 35.1039 351.344 38.3851C352.75 41.6664 353.453 46.7757 353.453 53.7132V79.9632H346.938V55.6351C346.938 49.7601 346.688 45.8382 346.188 43.8695C345.406 40.4945 343.938 37.9632 341.781 36.2757C339.625 34.557 336.812 33.6976 333.344 33.6976C329.375 33.6976 325.812 35.0101 322.656 37.6351C319.531 40.2601 317.469 43.5101 316.469 47.3851C315.844 49.9164 315.531 54.5414 315.531 61.2601V79.9632H308.969V28.9632Z" fill="#1C592F"/>
<path d="M365.078 28.9632H371.781V36.4164C373.781 33.4789 375.891 31.2914 378.109 29.8539C380.328 28.3851 382.641 27.6507 385.047 27.6507C386.859 27.6507 388.797 28.2289 390.859 29.3851L387.438 34.9164C386.062 34.3226 384.906 34.0257 383.969 34.0257C381.781 34.0257 379.672 34.932 377.641 36.7445C375.609 38.5257 374.062 41.307 373 45.0882C372.188 47.9945 371.781 53.8695 371.781 62.7132V79.9632H365.078V28.9632Z" fill="#1C592F"/>
</svg>
